<svg width="30" height="30" viewBox="0 0 30 30" fill="none" xmlns="http://www.w3.org/2000/svg">
<path d="M27.9981 7.45831H23.6409L27.5093 3.58989C27.9486 3.18061 27.78 2.44929 27.206 2.27353C26.9206 2.18618 26.6104 2.26928 26.407 2.48761L22.5386 6.35602V1.99885C22.5386 1.39847 21.8887 1.02324 21.3687 1.32343C21.1274 1.46274 20.9788 1.72022 20.9788 1.99885V6.69789C17.7867 4.60646 13.5654 5.04053 10.8658 7.73778C5.66238 12.8398 1.74717 25.0651 1.40011 26.1765C0.79573 27.4403 1.78613 28.8844 3.18281 28.7759C3.40632 28.7585 3.62471 28.7 3.82697 28.6033C4.93185 28.2563 17.1662 24.3384 22.2578 19.1441C24.9578 16.4437 25.392 12.2191 23.2977 9.02596H27.9981C28.5984 9.02593 28.9737 8.37598 28.6735 7.85605C28.5342 7.61477 28.2767 7.46612 27.9981 7.46611V7.45831ZM21.149 18.0406C19.9389 19.2871 18.249 20.457 16.3889 21.5281L12.9495 18.0874C12.5247 17.6626 11.7994 17.8569 11.6439 18.4372C11.5717 18.7065 11.6487 18.9938 11.8459 19.191L14.9656 22.3106C9.54639 25.1704 3.39671 27.0968 3.30181 27.1202C3.25431 27.1352 3.20821 27.1543 3.16403 27.1774C2.98679 27.2703 2.77541 27.1365 2.78355 26.9365C2.78512 26.8981 2.7952 26.8605 2.81306 26.8264C2.83615 26.7848 2.85572 26.7413 2.87156 26.6964C2.91055 26.5664 6.62169 14.7012 11.4221 9.40812L16.0068 13.9915C16.416 14.4307 17.1474 14.2622 17.3231 13.6881C17.4105 13.4028 17.3274 13.0926 17.109 12.8892L12.5465 8.32663C16.4797 5.23437 22.2854 7.55952 22.9968 12.5119C23.2886 14.5436 22.6036 16.5924 21.149 18.0406Z" fill="#839788"/>
</svg>
