<svg width="15" height="15" viewBox="0 0 15 15" fill="none" xmlns="http://www.w3.org/2000/svg">
<g clip-path="url(#clip0_6_221)">
<path d="M4.21875 5.62514L6.2775 8.507C6.36225 8.62569 6.47306 8.72331 6.60144 8.79244C6.72981 8.86156 6.87237 8.90031 7.01806 8.90575C7.16375 8.91119 7.30875 8.88312 7.44194 8.82375C7.57512 8.76437 7.69288 8.67525 7.78625 8.56325L14.5312 0.468262" stroke="#839788" stroke-width="1.5" stroke-linecap="round" stroke-linejoin="round"/>
<path d="M13.5938 6.5625V12.6562C13.5938 13.1535 13.3962 13.6304 13.0446 13.9821C12.6929 14.3337 12.216 14.5312 11.7188 14.5312H2.34375C1.84647 14.5312 1.36956 14.3337 1.01792 13.9821C0.666294 13.6304 0.46875 13.1535 0.46875 12.6562V3.28125C0.46875 2.78397 0.666294 2.30706 1.01792 1.95542C1.36956 1.60379 1.84647 1.40625 2.34375 1.40625H10.3125" stroke="#839788" stroke-width="1.5" stroke-linecap="round" stroke-linejoin="round"/>
</g>
<defs>
<clipPath id="clip0_6_221">
<rect width="15" height="15" fill="white"/>
</clipPath>
</defs>
</svg>
