<svg width="53" height="54" viewBox="0 0 53 54" fill="none" xmlns="http://www.w3.org/2000/svg">
<g clip-path="url(#clip0_27_523)">
<g clip-path="url(#clip1_27_523)">
<g clip-path="url(#clip2_27_523)">
<g clip-path="url(#clip3_27_523)">
<g clip-path="url(#clip4_27_523)">
<g clip-path="url(#clip5_27_523)">
<g clip-path="url(#clip6_27_523)">
<path d="M25.6497 34.1907L22.8186 38.5159C22.6531 38.7671 22.44 38.983 22.1914 39.1513C21.9428 39.3195 21.6635 39.4368 21.3697 39.4964C21.2288 39.5246 21.0855 39.539 20.9417 39.5392C20.5229 39.5402 20.1135 39.4145 19.7667 39.1785C19.5218 39.0139 19.3135 38.8 19.1552 38.5503C18.9969 38.3005 18.8919 38.0205 18.8469 37.7278C18.8004 37.436 18.8135 37.1378 18.8852 36.8512C18.957 36.5646 19.0859 36.2957 19.2643 36.0608L23.1588 30.9848C23.2016 30.9292 23.2549 30.8826 23.3155 30.8477C23.3762 30.8127 23.4432 30.7902 23.5125 30.7812C23.5819 30.7723 23.6523 30.7772 23.7198 30.7956C23.7873 30.814 23.8505 30.8457 23.9058 30.8886C23.9612 30.9316 24.0075 30.9851 24.0423 31.0461C24.0771 31.1071 24.0995 31.1744 24.1084 31.2441C24.1173 31.3138 24.1124 31.3846 24.0941 31.4524C24.0758 31.5202 24.0443 31.5837 24.0016 31.6393L20.107 36.7153C20.0166 36.835 19.9516 36.9721 19.916 37.118C19.8803 37.264 19.8748 37.4157 19.8997 37.5639C19.9246 37.712 19.9794 37.8535 20.0608 37.9796C20.1422 38.1056 20.2484 38.2136 20.3729 38.2969C20.4888 38.3748 20.6191 38.4286 20.7561 38.4552C20.893 38.4818 21.0339 38.4807 21.1704 38.4518C21.3261 38.4205 21.4741 38.3586 21.6059 38.2696C21.7377 38.1807 21.8508 38.0665 21.9386 37.9335L24.7592 33.6029C24.8378 33.4872 24.9586 33.4071 25.0955 33.38C25.2323 33.3529 25.3743 33.3809 25.4908 33.458C25.6072 33.5351 25.6889 33.6551 25.7181 33.7922C25.7474 33.9292 25.7219 34.0724 25.6471 34.1907H25.6497ZM36.8362 15.0409C35.8447 14.3303 34.4968 14.2768 33.0454 14.894C31.5486 15.5813 30.2665 16.6657 29.3369 18.0304C27.9918 19.9272 27.3617 22.0992 27.6542 23.841C27.7189 24.2442 27.6833 24.6572 27.5505 25.0432C27.528 25.1097 27.5187 25.18 27.5232 25.2501C27.5277 25.3202 27.5459 25.3887 27.5768 25.4517C27.6077 25.5147 27.6506 25.571 27.7031 25.6173C27.7556 25.6637 27.8166 25.6992 27.8828 25.7218C27.9489 25.7444 28.0189 25.7538 28.0886 25.7492C28.1584 25.7447 28.2265 25.7264 28.2892 25.6954C28.3519 25.6644 28.4079 25.6213 28.4541 25.5685C28.5002 25.5157 28.5355 25.4544 28.558 25.3879C28.7472 24.8344 28.7975 24.2424 28.7042 23.6647C28.4623 22.2167 29.0365 20.2959 30.2036 18.6502C31.0164 17.4477 32.1393 16.4901 33.4521 15.8798C34.5527 15.4149 35.531 15.4256 36.2115 15.9145C36.8921 16.4034 37.2244 17.3278 37.1446 18.5246C36.9995 19.9712 36.4656 21.3509 35.6001 22.5159C34.4437 24.1643 32.8114 25.3371 31.3706 25.5776C30.8079 25.6749 30.2771 25.9077 29.8234 26.2561C29.6997 26.3515 29.5816 26.4541 29.4698 26.5634C29.3767 26.6638 29.3256 26.7964 29.3272 26.9337C29.3287 27.071 29.3828 27.2024 29.4782 27.3007C29.5736 27.399 29.703 27.4566 29.8396 27.4616C29.9761 27.4666 30.1093 27.4185 30.2115 27.3274C30.2953 27.2478 30.3841 27.1737 30.4774 27.1057C30.793 26.8625 31.1623 26.6993 31.554 26.6301C33.2899 26.3389 35.1269 25.0272 36.4747 23.1357C37.4546 21.8088 38.0565 20.2387 38.2159 18.5941C38.3116 17.0152 37.8225 15.7515 36.8362 15.0409ZM25.2324 24.7574C25.2203 24.7358 25.2139 24.7114 25.2139 24.6866C25.2139 24.6618 25.2203 24.6374 25.2324 24.6158C25.464 24.0897 25.5554 23.512 25.4976 22.9396C25.4398 22.3672 25.2348 21.8198 24.9027 21.3511L20.1549 14.6936C20.1149 14.6348 20.0637 14.5846 20.0042 14.5459C19.9446 14.5073 19.878 14.481 19.8083 14.4686C19.7385 14.4562 19.667 14.458 19.5979 14.4737C19.5288 14.4895 19.4635 14.519 19.4059 14.5605C19.3483 14.602 19.2996 14.6546 19.2625 14.7153C19.2255 14.776 19.2009 14.8436 19.1901 14.914C19.1794 14.9843 19.1828 15.0562 19.2001 15.1252C19.2174 15.1943 19.2483 15.2592 19.2909 15.3161L24.0335 21.9736C24.2584 22.2907 24.3974 22.6611 24.4365 23.0486C24.4757 23.436 24.4137 23.827 24.2568 24.183C24.167 24.3811 24.1323 24.5999 24.1562 24.8162C24.18 25.0325 24.2616 25.2384 24.3923 25.4119L33.165 36.8142C33.2516 36.9232 33.3152 37.0489 33.3519 37.1834C33.3887 37.318 33.3978 37.4586 33.3787 37.5968C33.3597 37.7351 33.3128 37.8679 33.241 37.9874C33.1693 38.1068 33.0741 38.2103 32.9612 38.2916C32.8484 38.3729 32.7202 38.4303 32.5846 38.4602C32.449 38.4902 32.3088 38.4921 32.1724 38.4658C32.0361 38.4396 31.9064 38.3857 31.7914 38.3075C31.6764 38.2293 31.5785 38.1285 31.5035 38.011L23.5443 26.0157C23.4235 25.8337 23.2559 25.688 23.0593 25.5939C22.8628 25.4998 22.6445 25.461 22.4278 25.4814C22.0418 25.5171 21.6532 25.4512 21.3003 25.29C20.9474 25.1289 20.6424 24.8781 20.4154 24.5624L15.6808 17.9208C15.6409 17.862 15.5896 17.8118 15.5301 17.7732C15.4706 17.7345 15.404 17.7083 15.3342 17.6959C15.2644 17.6835 15.1929 17.6852 15.1238 17.701C15.0547 17.7168 14.9894 17.7463 14.9319 17.7878C14.8743 17.8293 14.8255 17.8819 14.7885 17.9426C14.7514 18.0033 14.7268 18.0708 14.7161 18.1412C14.7054 18.2116 14.7088 18.2834 14.7261 18.3525C14.7434 18.4215 14.7742 18.4864 14.8168 18.5433L19.5567 25.1982C19.8922 25.6658 20.3434 26.0372 20.8656 26.2757C21.3878 26.5142 21.963 26.6115 22.5341 26.558C22.5588 26.5542 22.584 26.5568 22.6073 26.5657C22.6306 26.5746 22.6512 26.5894 22.667 26.6088L30.6156 38.6014C30.77 38.8366 30.9702 39.0379 31.2041 39.1931C31.438 39.3483 31.7009 39.4542 31.9767 39.5044C32.1021 39.5274 32.2294 39.5391 32.3569 39.5392C32.7465 39.5381 33.128 39.4274 33.4583 39.2197C33.7885 39.012 34.0543 38.7155 34.2256 38.3638C34.3968 38.0121 34.4667 37.6192 34.4273 37.2297C34.3878 36.8401 34.2406 36.4694 34.0024 36.1596L25.2324 24.7574ZM21.835 23.3201C21.9324 23.3203 22.028 23.2935 22.1113 23.2428C22.1947 23.1921 22.2625 23.1194 22.3075 23.0325C22.3525 22.9457 22.3729 22.8481 22.3665 22.7504C22.36 22.6527 22.327 22.5586 22.2709 22.4785L17.9378 16.2591C17.8978 16.2016 17.8469 16.1525 17.7881 16.1147C17.7293 16.077 17.6636 16.0512 17.5948 16.0389C17.5261 16.0266 17.4556 16.0281 17.3874 16.0432C17.3192 16.0583 17.2547 16.0867 17.1974 16.1269C17.1402 16.1671 17.0913 16.2182 17.0537 16.2773C17.0161 16.3364 16.9905 16.4024 16.9783 16.4715C16.9661 16.5406 16.9675 16.6114 16.9825 16.68C16.9975 16.7485 17.0259 16.8134 17.0658 16.8709L21.399 23.0903C21.4479 23.1611 21.513 23.219 21.5889 23.259C21.6648 23.299 21.7492 23.3199 21.835 23.3201Z" fill="#839788"/>
</g>
</g>
<path d="M6.07492 20.5956L1.71949 19.1901L1.4514 20.029L0.725586 19.7947L1.51814 17.3145L2.24395 17.5487L1.97586 18.3876L6.33129 19.7932L6.07492 20.5956Z" fill="#839788"/>
<path d="M7.72323 16.5646L3.66992 12.9681L4.27511 12.002L9.25445 14.1203L8.80769 14.8335L7.82967 14.3958L7.84253 14.4039L7.33471 15.2145L8.13747 15.9034L7.72323 16.5646ZM6.77471 14.7423L7.17684 14.1003L4.74531 13.0057L4.73718 13.0186L6.77471 14.7423Z" fill="#839788"/>
<path d="M12.1681 11.0461C11.8693 11.3233 11.5651 11.4478 11.2549 11.4193C10.9448 11.3906 10.6433 11.2169 10.3502 10.8979L10.1432 10.6727L10.7257 10.132L10.9739 10.4022C11.2084 10.6574 11.4322 10.686 11.6451 10.4886C11.7497 10.3915 11.8005 10.287 11.7977 10.1748C11.7949 10.0627 11.7298 9.93706 11.6022 9.79836C11.4504 9.63325 11.2795 9.52248 11.0891 9.46605C10.8989 9.40962 10.6219 9.38682 10.2583 9.39784C9.7976 9.40848 9.43309 9.36953 9.165 9.28099C8.89691 9.19264 8.65774 9.03399 8.44732 8.80523C8.16108 8.49382 8.01777 8.17994 8.01758 7.86359C8.01739 7.54724 8.16675 7.25046 8.46547 6.97325C8.7604 6.69946 9.06196 6.57767 9.37013 6.60807C9.6783 6.63847 9.97891 6.81308 10.2721 7.1319L10.4221 7.29511L9.83957 7.83585L9.65335 7.63331C9.52913 7.49822 9.41248 7.42393 9.30339 7.41063C9.1943 7.39733 9.08918 7.43742 8.98841 7.5309C8.78309 7.72147 8.79595 7.94263 9.02698 8.19381C9.158 8.33631 9.31871 8.43397 9.50909 8.48679C9.69948 8.53961 9.97645 8.56051 10.3402 8.54968C10.8047 8.53562 11.17 8.57552 11.4362 8.66938C11.7022 8.76305 11.9491 8.93386 12.1768 9.18143C12.4734 9.50405 12.6216 9.82534 12.6216 10.1451C12.6216 10.4651 12.4704 10.7653 12.1681 11.0461Z" fill="#839788"/>
<path d="M16.3116 7.99614L14.1932 3.92178L13.4162 4.32971L13.063 3.65065L15.3605 2.44434L15.7136 3.1234L14.9366 3.53152L17.0549 7.60588L16.3116 7.99614Z" fill="#839788"/>
<path d="M20.847 6.1436L19.6431 0.918412L21.8714 0.399902L22.0432 1.14641L20.6321 1.47473L20.9502 2.85565L22.0718 2.59459L22.2438 3.3411L21.1223 3.60216L21.4921 5.2069L22.9033 4.87858L23.0753 5.6249L20.847 6.1436Z" fill="#839788"/>
<path d="M31.0859 5.91628L32.1449 1.44406L31.2918 1.24L31.4684 0.494629L33.9901 1.09769L33.8137 1.84306L32.9607 1.63919L31.9019 6.11141L31.0859 5.91628Z" fill="#839788"/>
<path d="M35.7036 7.50036L38.2325 2.77734L39.327 3.36919C39.7074 3.57496 39.9373 3.81379 40.0167 4.08587C40.0961 4.35795 40.0371 4.67848 39.8395 5.04727L39.6843 5.3374C39.4217 5.8276 39.0945 6.05085 38.7023 6.00715L38.6952 6.02064C38.8453 6.1715 38.9128 6.3501 38.8974 6.55625C38.8821 6.76259 38.7999 7.00522 38.6505 7.28414L38.2062 8.11406C38.134 8.24896 38.0801 8.36049 38.0444 8.44865C38.0089 8.53662 37.9873 8.63086 37.9795 8.73118L37.2276 8.32458C37.2418 8.23357 37.2624 8.15187 37.2897 8.07948C37.3169 8.00709 37.3774 7.88321 37.4712 7.70803L37.9336 6.84429C38.0491 6.62845 38.0953 6.45897 38.0716 6.33604C38.048 6.21311 37.9512 6.10557 37.781 6.01361L37.526 5.87567L36.4421 7.89974L35.7036 7.50036ZM37.8873 5.20098L38.1558 5.34614C38.3034 5.42594 38.4346 5.4476 38.5496 5.41112C38.6643 5.37464 38.77 5.26634 38.8663 5.08641L39.0614 4.72218C39.1529 4.55118 39.189 4.41115 39.1695 4.30209C39.15 4.19303 39.0754 4.10335 38.9455 4.03305L38.6099 3.85141L37.8873 5.20098Z" fill="#839788"/>
<path d="M40.3672 10.5449L44.7128 7.31152L45.5269 8.10781L42.4265 12.5599L41.8256 11.972L42.4558 11.102L42.445 11.113L41.7623 10.4448L40.9244 11.0901L40.3672 10.5449ZM42.3385 9.9928L42.8793 10.522L44.4519 8.3607L44.4409 8.35006L42.3385 9.9928Z" fill="#839788"/>
<path d="M44.3877 15.1749L48.8828 12.2837L49.3349 12.9935L44.8397 15.8848L44.3877 15.1749Z" fill="#839788"/>
<path d="M46.3423 19.0242L51.3817 17.2593L51.6578 18.055L47.3381 19.568L47.7922 20.8774L47.0723 21.1296L46.3423 19.0242Z" fill="#839788"/>
<path d="M0.962891 35.0267L5.37901 33.5979L5.10676 32.7482L5.84335 32.5098L6.64895 35.0242L5.91236 35.2625L5.64011 34.4128L1.22399 35.8418L0.962891 35.0267Z" fill="#839788"/>
<path d="M3.17383 40.2671L8.22255 38.1147L8.83738 39.095L4.72792 42.7447L4.27455 42.0219L5.10151 41.3145L5.08865 41.3227L4.57346 40.5011L3.59449 40.9378L3.17383 40.2671ZM5.24709 40.1922L5.65565 40.8435L7.71719 39.087L7.70906 39.0741L5.24709 40.1922Z" fill="#839788"/>
<path d="M8.43116 47.0042C8.12771 46.7229 7.97817 46.4234 7.98251 46.1059C7.98592 45.7877 8.13584 45.4671 8.43229 45.1443L8.64291 44.9148L9.23411 45.463L8.98209 45.7375C8.74425 45.9965 8.73328 46.226 8.949 46.4261C9.05544 46.5249 9.1651 46.5682 9.27797 46.5564C9.39084 46.5446 9.51184 46.4683 9.64097 46.3277C9.79525 46.1597 9.89318 45.9767 9.93477 45.7789C9.97448 45.5811 9.97448 45.2979 9.93439 44.9291C9.88694 44.4611 9.89658 44.0879 9.96389 43.8096C10.0308 43.5295 10.1713 43.273 10.3849 43.0403C10.6744 42.7249 10.9788 42.5544 11.2977 42.5288C11.6159 42.5024 11.9267 42.6299 12.2304 42.9113C12.5293 43.1883 12.676 43.4853 12.6707 43.8018C12.6645 44.1174 12.5132 44.4368 12.2166 44.7596L12.0642 44.9256L11.473 44.3775L11.6617 44.1719C11.7874 44.0349 11.8526 43.9103 11.8572 43.798C11.8617 43.6857 11.8129 43.5823 11.7112 43.4881C11.5029 43.2951 11.2817 43.326 11.0472 43.5814C10.9145 43.726 10.8292 43.897 10.7912 44.0946C10.7532 44.2922 10.7544 44.5755 10.7943 44.9445C10.8464 45.4149 10.8362 45.7896 10.7636 46.0681C10.6903 46.3459 10.5384 46.61 10.3085 46.8604C10.0078 47.188 9.69655 47.3651 9.37477 47.3917C9.05204 47.4173 8.73763 47.2881 8.43116 47.004V47.0042Z" fill="#839788"/>
<path d="M13.833 50.7526L15.9789 46.619L15.1914 46.2061L15.5493 45.5166L17.8797 46.7385L17.5218 47.428L16.7342 47.0151L14.5883 51.1486L13.833 50.7526Z" fill="#839788"/>
<path d="M19.6353 53.0751L20.854 47.7749L23.114 48.2997L22.9397 49.0574L21.5098 48.7253L21.188 50.125L22.3245 50.3889L22.1504 51.1466L21.0137 50.8827L20.6396 52.5101L22.0696 52.8422L21.8953 53.5999L19.6353 53.0751Z" fill="#839788"/>
<path d="M32.3143 53.2978L31.2423 48.7618L30.3781 48.9679L30.1992 48.2114L32.7567 47.6011L32.9353 48.3577L32.0711 48.564L33.1431 53.1001L32.3143 53.2978Z" fill="#839788"/>
<path d="M38.2262 51.2245L35.6631 46.4331L36.7746 45.8327C37.1606 45.6241 37.4904 45.5619 37.7634 45.6463C38.0371 45.7318 38.2739 45.9613 38.4735 46.3349L38.6314 46.6301C38.8974 47.1273 38.9023 47.5305 38.6467 47.8397L38.6539 47.8531C38.8641 47.8093 39.0518 47.8512 39.2169 47.9797C39.3827 48.1091 39.5411 48.3148 39.6922 48.597L40.1425 49.4389C40.2159 49.5761 40.2796 49.6846 40.3339 49.7642C40.3879 49.8438 40.4554 49.9145 40.5362 49.9766L39.7724 50.3893C39.7039 50.3262 39.647 50.2627 39.6013 50.1989C39.5557 50.135 39.4852 50.0144 39.3903 49.8367L38.9218 48.961C38.8044 48.7418 38.6873 48.6078 38.5707 48.5594C38.4538 48.5109 38.3092 48.5332 38.1368 48.6263L37.8783 48.7659L38.9766 50.8191L38.2262 51.2245ZM37.5119 48.081L37.7838 47.9339C37.9337 47.853 38.0254 47.7534 38.0591 47.6352C38.0925 47.517 38.0606 47.3669 37.963 47.1847L37.7655 46.8152C37.6728 46.6419 37.5749 46.5332 37.4718 46.4889C37.3688 46.4447 37.2512 46.4582 37.1191 46.5294L36.7799 46.7126L37.5119 48.081Z" fill="#839788"/>
<path d="M44.0977 47.2978L40.9536 42.7819L41.78 41.9736L46.1863 45.2551L45.5771 45.851L44.7167 45.185L44.7273 45.1958L44.0348 45.8732L44.6632 46.7447L44.0977 47.2978ZM43.5941 45.2753L44.1433 44.7381L42.005 43.0768L41.994 43.0874L43.5941 45.2753Z" fill="#839788"/>
<path d="M48.9034 41.7112L44.3462 38.7755L44.8058 38.0547L49.3631 40.9904L48.9034 41.7112Z" fill="#839788"/>
<path d="M51.4026 36.7492L46.293 34.9533L46.5743 34.145L50.9534 35.6842L51.4152 34.3571L52.1458 34.6138L51.4026 36.7492Z" fill="#839788"/>
<path d="M0.384766 26.9784C0.384766 25.8308 1.3106 24.9004 2.45254 24.9004C3.59448 24.9004 4.52032 25.8308 4.52032 26.9784C4.52032 28.126 3.59448 29.0564 2.45254 29.0564C1.3106 29.0564 0.384766 28.126 0.384766 26.9784Z" fill="#839788"/>
<path d="M48.4175 26.9784C48.4175 25.8308 49.3433 24.9004 50.4853 24.9004C51.6272 24.9004 52.553 25.8308 52.553 26.9784C52.553 28.126 51.6272 29.0564 50.4853 29.0564C49.3433 29.0564 48.4175 28.126 48.4175 26.9784Z" fill="#839788"/>
</g>
</g>
</g>
</g>
</g>
<defs>
<clipPath id="clip0_27_523">
<rect width="52.9375" height="53.2" fill="white" transform="translate(0 0.399902)"/>
</clipPath>
<clipPath id="clip1_27_523">
<rect width="52.9375" height="53.2" fill="white" transform="translate(0 0.399902)"/>
</clipPath>
<clipPath id="clip2_27_523">
<rect width="52.9375" height="53.2" fill="white" transform="translate(0 0.399902)"/>
</clipPath>
<clipPath id="clip3_27_523">
<rect width="52.9375" height="53.2" fill="white" transform="translate(0 0.399902)"/>
</clipPath>
<clipPath id="clip4_27_523">
<rect width="52.9375" height="53.2" fill="white" transform="translate(0 0.399902)"/>
</clipPath>
<clipPath id="clip5_27_523">
<rect width="23.5178" height="25.0787" fill="white" transform="translate(14.71 14.4604)"/>
</clipPath>
<clipPath id="clip6_27_523">
<rect width="23.5178" height="25.0787" fill="white" transform="translate(14.71 14.4604)"/>
</clipPath>
</defs>
</svg>
