<svg width="50" height="50" viewBox="0 0 50 50" fill="none" xmlns="http://www.w3.org/2000/svg">
<path d="M39.6484 24.9998C39.6485 22.6429 39.0758 20.3213 37.9796 18.2349L35.7881 20.4264C36.4038 21.8724 36.7203 23.4282 36.7187 24.9998H39.6484Z" fill="white"/>
<path d="M35.8605 16.2111L33.7891 14.1396L26.8828 21.0459C26.2962 20.7596 25.6527 20.6091 25 20.6056C24.1308 20.6056 23.2812 20.8634 22.5585 21.3462C21.8359 21.8291 21.2726 22.5154 20.94 23.3184C20.6074 24.1214 20.5203 25.005 20.6899 25.8575C20.8595 26.7099 21.278 27.493 21.8926 28.1075C22.5072 28.7221 23.2902 29.1407 24.1427 29.3102C24.9951 29.4798 25.8787 29.3928 26.6817 29.0602C27.4847 28.7276 28.171 28.1643 28.6539 27.4416C29.1368 26.7189 29.3945 25.8693 29.3945 25.0001C29.391 24.3475 29.2405 23.7039 28.9542 23.1174L35.8605 16.2111ZM25 26.465C24.7103 26.465 24.4271 26.3791 24.1862 26.2181C23.9453 26.0572 23.7575 25.8284 23.6467 25.5607C23.5358 25.2931 23.5068 24.9985 23.5633 24.7144C23.6198 24.4302 23.7593 24.1692 23.9642 23.9643C24.1691 23.7595 24.4301 23.62 24.7142 23.5635C24.9984 23.5069 25.2929 23.5359 25.5606 23.6468C25.8282 23.7577 26.057 23.9454 26.218 24.1863C26.3789 24.4272 26.4648 24.7104 26.4648 25.0001C26.4643 25.3885 26.3098 25.7608 26.0352 26.0354C25.7606 26.31 25.3883 26.4645 25 26.465Z" fill="white"/>
<path d="M25 13.2813C26.5717 13.2797 28.1275 13.5963 29.5737 14.2119L31.7652 12.0203C29.5342 10.8522 27.0393 10.2799 24.5222 10.3587C22.0051 10.4376 19.551 11.1649 17.3974 12.4702C15.2438 13.7756 13.4636 15.6149 12.2293 17.81C10.9949 20.0051 10.3481 22.4817 10.3516 25H13.2813C13.2848 21.8931 14.5206 18.9145 16.7175 16.7176C18.9145 14.5206 21.8931 13.2848 25 13.2813Z" fill="white"/>
<path d="M25 45.5078C20.9439 45.5078 16.979 44.3051 13.6065 42.0516C10.234 39.7982 7.60545 36.5953 6.05326 32.848C4.50107 29.1007 4.09495 24.9773 4.88625 20.9991C5.67755 17.021 7.63073 13.3669 10.4988 10.4988C13.3669 7.63073 17.021 5.67755 20.9991 4.88625C24.9773 4.09495 29.1007 4.50107 32.848 6.05326C36.5953 7.60545 39.7982 10.234 42.0516 13.6065C44.3051 16.979 45.5078 20.9439 45.5078 25C45.5017 30.4371 43.3391 35.6498 39.4945 39.4945C35.6498 43.3391 30.4371 45.5017 25 45.5078ZM25 7.42188C21.5234 7.42188 18.1248 8.45282 15.2341 10.3843C12.3434 12.3158 10.0904 15.0612 8.75994 18.2732C7.42949 21.4851 7.08139 25.0195 7.75964 28.4293C8.4379 31.8392 10.1121 34.9713 12.5704 37.4296C15.0287 39.888 18.1609 41.5621 21.5707 42.2404C24.9805 42.9186 28.5149 42.5705 31.7269 41.2401C34.9388 39.9096 37.6842 37.6566 39.6157 34.7659C41.5472 31.8752 42.5781 28.4766 42.5781 25C42.5728 20.3396 40.7191 15.8717 37.4238 12.5763C34.1284 9.28088 29.6604 7.4272 25 7.42188Z" fill="white"/>
</svg>
