<svg width="60" height="60" viewBox="0 0 60 60" fill="none" xmlns="http://www.w3.org/2000/svg">
<path d="M21.6875 16.0002V9.00024C21.6888 7.9899 22.7834 7.35983 23.6577 7.86615C24.0625 8.10051 24.3119 8.53256 24.3125 9.00024V16.0002C24.3112 17.0106 23.2166 17.6407 22.3423 17.1343C21.9376 16.9 21.6881 16.4679 21.6875 16.0002ZM30 17.3127C30.7249 17.3127 31.3125 16.7251 31.3125 16.0002V9.00024C31.3112 7.9899 30.2166 7.35983 29.3423 7.86615C28.9375 8.10051 28.6881 8.53256 28.6875 9.00024V16.0002C28.6875 16.7251 29.2751 17.3127 30 17.3127ZM37 17.3127C37.7249 17.3127 38.3125 16.7251 38.3125 16.0002V9.00024C38.3112 7.9899 37.2166 7.35983 36.3423 7.86615C35.9375 8.10051 35.6881 8.53256 35.6875 9.00024V16.0002C35.6875 16.7251 36.2751 17.3127 37 17.3127ZM57.0374 27.5502L50.5624 32.4064V45.7501C50.5624 49.3745 47.6243 52.3126 44 52.3126H16C12.3757 52.3126 9.43754 49.3745 9.43754 45.7501V32.4064L2.96257 27.5502C2.15477 26.9433 2.30687 25.6896 3.23633 25.2934C3.667 25.1099 4.16283 25.1696 4.53757 25.4502L9.43754 29.1252V23.0002C9.43754 22.2753 10.0252 21.6877 10.7501 21.6877H49.2499C49.9748 21.6877 50.5624 22.2753 50.5624 23.0002V29.1252L55.4624 25.4502C56.2712 24.8447 57.4322 25.3417 57.5523 26.3449C57.6079 26.8097 57.4117 27.269 57.0374 27.5502ZM47.9374 24.3127H12.0626V45.7501C12.0626 47.9248 13.8254 49.6876 16 49.6876H44C46.1746 49.6876 47.9374 47.9248 47.9374 45.7501V24.3127Z" fill="white"/>
</svg>
