<svg width="10" height="10" viewBox="0 0 10 10" fill="none" xmlns="http://www.w3.org/2000/svg">
<g clip-path="url(#clip0_16_504)">
<path d="M9.56026 3.90301C9.47637 3.64512 9.24566 3.46295 8.97535 3.44115L6.55528 3.24591L5.62089 0.986221C5.42476 0.508323 4.78484 0.421953 4.46903 0.830754C4.43229 0.878325 4.4021 0.930612 4.37927 0.986221L3.4457 3.2455L1.02441 3.44115C0.506519 3.48495 0.230253 4.07296 0.52713 4.49956C0.559386 4.54591 0.597329 4.58803 0.640069 4.62493L2.48588 6.21767L1.92352 8.59917C1.80135 9.10175 2.26905 9.54811 2.76538 9.40262C2.82272 9.38582 2.87757 9.36143 2.92847 9.33012L4.99988 8.05528L7.07252 9.33012C7.51504 9.59906 8.08276 9.28811 8.09442 8.7704C8.09572 8.71278 8.0896 8.65524 8.07623 8.59917L7.51182 6.21726L9.35764 4.62452C9.565 4.44721 9.645 4.16236 9.56026 3.90301ZM8.93105 4.12739L6.93347 5.85014C6.84061 5.93019 6.80011 6.05532 6.82846 6.1746L7.43881 8.75053C7.44209 8.7579 7.43903 8.76655 7.43184 8.77022C7.42446 8.77596 7.4224 8.77473 7.41625 8.77022L5.17174 7.38996C5.06633 7.32515 4.93342 7.32515 4.82801 7.38996L2.5835 8.77104C2.57735 8.77473 2.57571 8.77596 2.56792 8.77104C2.56073 8.76737 2.55766 8.75872 2.56094 8.75135L3.17129 6.17542C3.19965 6.05614 3.15915 5.93101 3.06629 5.85096L1.06871 4.12821C1.06379 4.1241 1.05927 4.12041 1.06338 4.1077C1.06748 4.09498 1.07076 4.09662 1.07691 4.0958L3.69878 3.88415C3.82139 3.87363 3.92781 3.7954 3.97443 3.68152L4.98429 1.23643C4.98757 1.22946 4.9888 1.22618 4.99865 1.22618C5.00849 1.22618 5.00972 1.22946 5.013 1.23643L6.02533 3.68152C6.07239 3.79546 6.17933 3.8734 6.3022 3.88333L8.92408 4.09498C8.93023 4.09498 8.93392 4.09498 8.93761 4.10688C8.9413 4.11877 8.93761 4.12328 8.93105 4.12739Z" fill="black"/>
</g>
<defs>
<clipPath id="clip0_16_504">
<rect width="10" height="10" fill="black"/>
</clipPath>
</defs>
</svg>
