<svg width="50" height="50" viewBox="0 0 50 50" fill="none" xmlns="http://www.w3.org/2000/svg">
<g clip-path="url(#clip0_6_204)">
<path fill-rule="evenodd" clip-rule="evenodd" d="M25 0.5C23.9827 0.5 23.158 1.32467 23.158 2.342V10.3457C23.158 11.363 23.9827 12.1877 25 12.1877C26.0173 12.1877 26.842 11.363 26.842 10.3457V4.26467C37.4753 5.197 45.8157 14.1243 45.8157 25C45.8157 36.4963 36.4963 45.8157 25 45.8157C13.5037 45.8157 4.18433 36.4963 4.18433 25C4.18433 19.8647 6.04133 15.168 9.123 11.5377C9.78133 10.762 9.68633 9.59967 8.91067 8.94133C8.135 8.28267 6.97233 8.378 6.314 9.15333C2.68867 13.4247 0.5 18.959 0.5 25C0.5 38.531 11.469 49.5 25 49.5C38.531 49.5 49.5 38.531 49.5 25C49.5 11.469 38.531 0.5 25 0.5ZM22.202 27.1397L12.9293 14.214C12.6663 13.8477 12.7077 13.345 13.0263 13.0263C13.345 12.7077 13.8477 12.6667 14.214 12.9293L27.1393 22.202C28.9137 23.4747 29.123 26.035 27.579 27.579C26.035 29.123 23.475 28.9137 22.202 27.1397Z" fill="white"/>
</g>
<defs>
<clipPath id="clip0_6_204">
<rect width="50" height="50" fill="white"/>
</clipPath>
</defs>
</svg>
