<svg width="30" height="30" viewBox="0 0 30 30" fill="none" xmlns="http://www.w3.org/2000/svg">
<path d="M9.16024 11.4064V3.91943C9.16024 3.66488 9.24691 3.45145 9.42019 3.27915C9.59328 3.10705 9.80789 3.021 10.0641 3.021C10.32 3.021 10.5329 3.10705 10.7026 3.27915C10.8722 3.45145 10.9571 3.66488 10.9571 3.91943V11.4064H12.9037V3.91943C12.9037 3.66488 12.9904 3.45145 13.1637 3.27915C13.3368 3.10705 13.5514 3.021 13.8076 3.021C14.0635 3.021 14.2764 3.10705 14.446 3.27915C14.6157 3.45145 14.7006 3.66488 14.7006 3.91943V11.3983C14.7006 12.5617 14.3363 13.5577 13.6075 14.3862C12.8788 15.2148 11.9953 15.7389 10.9571 15.9585V26.0809C10.9571 26.3355 10.8704 26.5488 10.6972 26.7209C10.5241 26.8932 10.3095 26.9793 10.0533 26.9793C9.79735 26.9793 9.58448 26.8932 9.41479 26.7209C9.24511 26.5488 9.16024 26.3355 9.16024 26.0809V15.9585C8.12206 15.7389 7.2386 15.2148 6.50985 14.3862C5.78111 13.5577 5.41675 12.5617 5.41675 11.3983V3.91943C5.41675 3.66488 5.5034 3.45145 5.6767 3.27915C5.8498 3.10705 6.06442 3.021 6.32058 3.021C6.57653 3.021 6.78938 3.10705 6.95907 3.27915C7.12875 3.45145 7.21362 3.66488 7.21362 3.91943V11.4064H9.16024ZM21.5886 17.396H19.0431C18.7885 17.396 18.5751 17.3099 18.4031 17.1375C18.2307 16.9655 18.1446 16.7521 18.1446 16.4976V8.26188C18.1446 6.88428 18.5689 5.6664 19.4174 4.60824C20.2659 3.55007 21.2492 3.021 22.3673 3.021C22.6468 3.021 22.8864 3.12212 23.086 3.32437C23.2857 3.52662 23.3855 3.7649 23.3855 4.03923V26.0809C23.3855 26.3355 23.2988 26.5488 23.1256 26.7209C22.9525 26.8932 22.7378 26.9793 22.4817 26.9793C22.2257 26.9793 22.0129 26.8932 21.8432 26.7209C21.6735 26.5488 21.5886 26.3355 21.5886 26.0809V17.396Z" stroke="#839788"/>
</svg>
